<svg width="126" height="32" viewBox="0 0 126 32" fill="none" xmlns="http://www.w3.org/2000/svg">
<path d="M110.15 32H101.64V28.6316H110.15V32Z" fill="white"/>
<path d="M126 32H117.49V28.6316H126V32Z" fill="white"/>
<path d="M110.15 25.2632H101.64V21.8947H110.15V25.2632Z" fill="white"/>
<path d="M126 25.2632H117.49V21.8947H126V25.2632Z" fill="white"/>
<path d="M111.608 15.1579C110.693 15.8139 110.15 16.9365 110.15 18.4309V18.5263H101.64V15.1579H111.608Z" fill="white"/>
<path d="M125.898 15.1579C125.964 15.6569 126 16.1739 126 16.7072V18.5263H117.49V18.4309C117.49 16.9368 117.013 15.8139 116.121 15.1579H125.898Z" fill="white"/>
<path d="M109.835 9.01645H110.105C110.372 8.78007 110.637 8.58438 110.901 8.42105H121.118C122.708 9.11566 123.969 10.2779 124.811 11.7895H101.64V8.42105H109.835V9.01645Z" fill="white"/>
<path d="M109.835 5.05263H101.64V0H109.835V5.05263Z" fill="white"/>
<path d="M73.0798 31.68C72.2421 31.8173 70.8923 31.9999 68.8913 31.9999C64.7099 31.9999 61.8668 30.9391 60.4913 28.6315H73.0798V31.68Z" fill="white"/>
<path d="M68.3326 23.6726C68.3326 24.5883 68.6919 25.0689 69.4089 25.2631H59.5561C59.5433 25.0293 59.535 24.7888 59.5372 24.5419V21.8947H68.3326V23.6726Z" fill="white"/>
<path d="M73.0798 25.2631H72.6762C72.8149 25.2513 72.9503 25.2407 73.0798 25.2286V25.2631Z" fill="white"/>
<path d="M68.3326 18.5263H59.5372V15.1578H68.3326V18.5263Z" fill="white"/>
<path d="M72.7541 11.7894H56.2798V8.42099H72.7541V11.7894Z" fill="white"/>
<path d="M68.3326 5.05257H59.5372V0.842041H68.3326V5.05257Z" fill="white"/>
<path d="M52.326 31.158H45.606V28.6317H52.326V31.158Z" fill="white"/>
<path d="M52.326 25.2632H45.606V21.8948H52.326V25.2632Z" fill="white"/>
<path d="M52.326 18.5264H45.606V15.158H52.326V18.5264Z" fill="white"/>
<path d="M52.326 11.7896H45.606V8.42114H52.326V11.7896Z" fill="white"/>
<path d="M40.3198 31.1578H32.7598V28.6315H40.3198V31.1578Z" fill="white"/>
<path d="M40.3198 25.2631H32.7598V21.8947H40.3198V25.2631Z" fill="white"/>
<path d="M40.3198 18.5263H32.7598V15.1578H40.3198V18.5263Z" fill="white"/>
<path d="M40.3198 11.7894H32.7598V8.42099H40.3198V11.7894Z" fill="white"/>
<path d="M40.3198 5.05257H32.7598V0.842041H40.3198V5.05257Z" fill="white"/>
<path d="M23.8908 28.6315C21.5477 30.8182 18.2698 31.9999 14.4539 31.9999C10.6053 31.9999 7.30695 30.8077 4.83656 28.6315H23.8908Z" fill="white"/>
<path d="M9.14894 21.8947C10.2147 23.9281 12.0269 25.0476 14.5359 25.0476C17.5574 25.0475 19.3662 23.8642 19.9648 21.8947H27.4534C27.2266 23.1189 26.859 24.2439 26.3648 25.2631H2.1123C1.53222 24.242 1.06382 23.1162 0.716133 21.8947H9.14894Z" fill="white"/>
<path d="M8.07105 15.1578C8.04208 15.5512 8.02512 15.9583 8.02512 16.379C8.02512 17.139 8.07092 17.8555 8.15801 18.5263H0.0951562C0.0325906 17.8589 1.84833e-06 17.1709 0 16.4629C0 16.0193 0.0135162 15.5842 0.0385547 15.1578H8.07105Z" fill="white"/>
<path d="M27.72 18.5263H14.6992V15.1578H27.72V18.5263Z" fill="white"/>
<path d="M11.7198 8.42099C10.4072 9.07201 9.41589 10.2162 8.79211 11.7894H0.526641C0.818779 10.5713 1.2272 9.44739 1.7366 8.42099H11.7198Z" fill="white"/>
<path d="M26.7135 8.42099C27.0547 9.30307 27.2863 10.242 27.3927 11.2277H19.4898C19.1786 9.95474 18.4473 8.99734 17.3701 8.42099H26.7135Z" fill="white"/>
<path d="M14.4129 0.842041C18.6455 0.842073 22.2877 2.43703 24.6397 5.05257H4.08105C6.69581 2.3049 10.3528 0.842041 14.4129 0.842041Z" fill="white"/>
<path d="M48.966 0.842041C50.8247 0.842041 52.326 2.35202 52.326 4.21046C52.326 4.50117 52.2892 4.78336 52.2201 5.05257H45.7118C45.6427 4.78336 45.606 4.50117 45.606 4.21046C45.606 2.35202 47.1072 0.842041 48.966 0.842041Z" fill="#FF7B00"/>
<path d="M95.827 28.6317C93.8778 30.7811 90.9374 32 87.2195 32.0001C83.536 32.0001 80.5632 30.7742 78.4725 28.6317H95.827Z" fill="white"/>
<path d="M83.7611 21.8948C84.294 23.9658 85.4255 25.0888 86.9266 25.2632H76.2257C75.773 24.2342 75.441 23.107 75.238 21.8948H83.7611Z" fill="white"/>
<path d="M98.4848 21.8948C98.4007 23.1091 98.1745 24.2361 97.8114 25.2632H87.7625C89.2828 25.0885 90.3841 23.9308 90.7444 21.8948H98.4848Z" fill="white"/>
<path d="M83.9784 15.158C83.647 16.0524 83.453 17.1743 83.4264 18.5264H75.0059C75.0314 17.339 75.1659 16.2129 75.4029 15.158H83.9784Z" fill="white"/>
<path d="M94.9731 8.42114C96.0539 9.32966 96.9098 10.4634 97.5103 11.7896H76.635C77.3428 10.4653 78.2705 9.33097 79.3995 8.42114H94.9731Z" fill="white"/>
</svg>
