<svg width="36" height="36" viewBox="0 0 36 36" fill="none" xmlns="http://www.w3.org/2000/svg">
<rect width="36" height="36" fill="#09090B"/>
<path d="M26.9016 28.6101C24.7929 30.5782 21.8428 31.6417 18.4084 31.6417C14.9447 31.6417 11.9762 30.5687 9.75281 28.6101H26.9016Z" fill="white"/>
<path d="M13.634 22.547C14.5931 24.3771 16.2241 25.3846 18.4822 25.3846C21.2015 25.3846 22.8295 24.3195 23.3682 22.547H30.108C29.9038 23.6488 29.573 24.6613 29.1283 25.5786H7.30098C6.7789 24.6595 6.35734 23.6464 6.04442 22.547H13.634Z" fill="white"/>
<path d="M12.6639 16.4838C12.6378 16.8378 12.6225 17.2042 12.6225 17.5829C12.6225 18.2669 12.6637 18.9117 12.7421 19.5154H5.48554C5.42923 18.9148 5.3999 18.2956 5.3999 17.6584C5.3999 17.2592 5.41207 16.8676 5.4346 16.4838H12.6639Z" fill="white"/>
<path d="M30.3479 19.5154H18.6292V16.4838H30.3479V19.5154Z" fill="white"/>
<path d="M15.9477 10.4207C14.7664 11.0066 13.8742 12.0364 13.3128 13.4522H5.87388C6.1368 12.356 6.50439 11.3444 6.96284 10.4207H15.9477Z" fill="white"/>
<path d="M29.442 10.4207C29.7491 11.2145 29.9576 12.0596 30.0533 12.9467H22.9407C22.6606 11.801 22.0024 10.9394 21.033 10.4207H29.442Z" fill="white"/>
<path d="M18.3715 3.59961C22.1809 3.59964 25.4588 5.0351 27.5757 7.38908H9.07285C11.4261 4.91619 14.7174 3.59961 18.3715 3.59961Z" fill="white"/>
</svg>
